<?xml version="1.0" standalone="no"?>
<svg xmlns:xlink="http://www.w3.org/1999/xlink" id="wave" style="transform:rotate(0deg); transition: 0.3s" viewBox="0 0 1440 490" version="1.1" xmlns="http://www.w3.org/2000/svg"><defs><linearGradient id="sw-gradient-0" x1="0" x2="0" y1="1" y2="0"><stop stop-color="rgba(82, 203, 190, 1)" offset="0%"/><stop stop-color="rgba(84, 98, 191, 1)" offset="100%"/></linearGradient></defs><path style="transform:translate(0, 0px); opacity:1" fill="url(#sw-gradient-0)" d="M0,294L18.5,310.3C36.9,327,74,359,111,310.3C147.7,261,185,131,222,89.8C258.5,49,295,98,332,130.7C369.2,163,406,180,443,196C480,212,517,229,554,196C590.8,163,628,82,665,89.8C701.5,98,738,196,775,228.7C812.3,261,849,229,886,179.7C923.1,131,960,65,997,57.2C1033.8,49,1071,98,1108,114.3C1144.6,131,1182,114,1218,163.3C1255.4,212,1292,327,1329,359.3C1366.2,392,1403,343,1440,326.7C1476.9,310,1514,327,1551,277.7C1587.7,229,1625,114,1662,122.5C1698.5,131,1735,261,1772,310.3C1809.2,359,1846,327,1883,310.3C1920,294,1957,294,1994,310.3C2030.8,327,2068,359,2105,318.5C2141.5,278,2178,163,2215,163.3C2252.3,163,2289,278,2326,310.3C2363.1,343,2400,294,2437,285.8C2473.8,278,2511,310,2548,294C2584.6,278,2622,212,2640,179.7L2658.5,147L2658.5,490L2640,490C2621.5,490,2585,490,2548,490C2510.8,490,2474,490,2437,490C2400,490,2363,490,2326,490C2289.2,490,2252,490,2215,490C2178.5,490,2142,490,2105,490C2067.7,490,2031,490,1994,490C1956.9,490,1920,490,1883,490C1846.2,490,1809,490,1772,490C1735.4,490,1698,490,1662,490C1624.6,490,1588,490,1551,490C1513.8,490,1477,490,1440,490C1403.1,490,1366,490,1329,490C1292.3,490,1255,490,1218,490C1181.5,490,1145,490,1108,490C1070.8,490,1034,490,997,490C960,490,923,490,886,490C849.2,490,812,490,775,490C738.5,490,702,490,665,490C627.7,490,591,490,554,490C516.9,490,480,490,443,490C406.2,490,369,490,332,490C295.4,490,258,490,222,490C184.6,490,148,490,111,490C73.8,490,37,490,18,490L0,490Z"/></svg>